<?xml version="1.0" standalone="no"?>
<!DOCTYPE svg PUBLIC "-//W3C//DTD SVG 20010904//EN"
 "http://www.w3.org/TR/2001/REC-SVG-20010904/DTD/svg10.dtd">
<svg version="1.0" xmlns="http://www.w3.org/2000/svg"
 width="638.000000pt" height="523.000000pt" viewBox="0 0 638.000000 523.000000"
 preserveAspectRatio="xMidYMid meet">

<g transform="translate(0.000000,523.000000) scale(0.100000,-0.100000)"
fill="#000000" stroke="none">
<path d="M2523 5025 l-33 -14 0 -86 c0 -47 -4 -85 -9 -85 -5 0 -33 29 -62 65
-29 36 -58 65 -64 65 -24 0 -75 -22 -75 -33 0 -6 19 -71 42 -144 38 -122 43
-133 62 -127 37 11 38 20 16 94 -12 39 -19 74 -16 77 3 3 18 -10 33 -28 69
-83 90 -102 106 -96 12 5 17 19 18 54 1 65 13 140 20 128 4 -5 16 -40 28 -77
13 -37 26 -70 29 -72 12 -6 52 13 52 25 0 6 -18 69 -41 140 -44 139 -46 141
-106 114z"/>
<path d="M3061 5011 l-44 -6 2 -85 c1 -47 6 -89 10 -93 5 -5 19 -7 32 -5 22 3
24 7 21 59 -3 42 1 60 13 73 37 36 60 15 69 -66 7 -56 8 -58 38 -58 l30 0 -7
68 c-13 118 -32 131 -164 113z"/>
<path d="M3337 5000 c-79 -62 -14 -205 78 -171 19 7 33 7 39 1 15 -15 53 -12
60 6 3 9 6 49 6 90 0 71 -1 75 -26 84 -46 18 -129 12 -157 -10z m105 -47 c25
-22 23 -50 -6 -68 -34 -23 -66 -5 -66 35 0 44 39 63 72 33z"/>
<path d="M3614 4986 c-16 -12 -19 -25 -16 -88 3 -79 14 -98 61 -98 33 0 56
-14 47 -29 -10 -16 -62 -14 -96 4 -27 14 -30 14 -30 0 0 -33 38 -55 93 -55 61
0 87 19 87 63 0 29 -24 49 -75 63 -29 7 -29 8 -5 11 61 9 72 15 86 48 8 19 19
35 24 35 6 0 10 6 10 13 0 16 -87 47 -132 47 -19 0 -43 -6 -54 -14z m91 -32
c9 -9 14 -21 12 -27 -6 -18 -33 -31 -51 -24 -19 7 -22 53 -3 60 20 9 25 8 42
-9z"/>
<path d="M2810 4980 c-48 -12 -80 -51 -80 -101 0 -68 70 -117 128 -89 15 7 42
14 60 15 17 1 34 4 37 7 6 6 -13 126 -25 156 -8 18 -17 22 -47 21 -21 -1 -54
-5 -73 -9z m65 -70 c27 -30 7 -70 -35 -70 -42 0 -62 40 -35 70 10 11 26 20 35
20 9 0 25 -9 35 -20z"/>
<path d="M3908 4925 c-34 -19 -48 -44 -48 -85 0 -42 15 -67 50 -85 37 -19 81
-19 106 0 16 13 17 16 4 25 -8 5 -29 10 -45 10 -32 0 -55 15 -55 36 0 9 12 9
53 -2 75 -20 77 -19 77 24 0 69 -80 112 -142 77z m86 -47 c15 -24 4 -30 -33
-17 -26 9 -29 14 -20 26 15 17 38 13 53 -9z"/>
<path d="M4155 4850 c-20 -39 -58 -141 -53 -145 1 -2 15 -6 29 -10 24 -6 28
-3 44 39 22 56 37 70 70 62 31 -8 31 -23 3 -88 -18 -42 -19 -51 -7 -59 29 -18
46 -8 70 44 26 55 55 71 79 42 10 -13 9 -25 -9 -71 -23 -61 -22 -69 10 -77 17
-5 25 3 45 49 29 65 31 105 6 127 -25 23 -91 49 -103 41 -6 -3 -20 3 -33 15
-12 11 -48 30 -79 40 l-57 20 -15 -29z"/>
<path d="M2058 4799 c-17 -9 -17 -12 -2 -41 11 -22 13 -33 5 -38 -16 -9 -2
-40 18 -40 9 0 27 -20 41 -48 22 -41 29 -47 61 -50 23 -2 40 2 48 12 19 22 6
46 -24 46 -20 0 -29 8 -40 33 -12 28 -11 34 2 49 19 22 2 49 -25 41 -12 -3
-22 4 -30 21 -12 28 -26 32 -54 15z"/>
<path d="M1914 4636 c-82 -82 5 -200 110 -151 42 20 55 40 37 58 -9 9 -16 9
-31 -1 -28 -17 -54 -15 -73 6 -24 26 -21 49 8 68 14 9 25 25 25 35 0 30 -38
23 -76 -15z"/>
<path d="M4535 4645 c-45 -44 -29 -132 30 -160 36 -16 54 -18 79 -9 24 9 1 44
-29 44 -23 0 -55 23 -55 40 0 22 25 19 71 -10 27 -17 54 -28 60 -25 13 9 11
87 -4 106 -35 45 -114 53 -152 14z m113 -42 c2 -13 1 -23 -2 -23 -12 0 -56 24
-56 30 0 30 54 23 58 -7z"/>
<path d="M3249 4608 c-243 -175 -659 -477 -1034 -750 -364 -265 -430 -317
-433 -340 -3 -28 27 -54 53 -45 7 3 325 232 706 509 382 277 715 519 742 538
l47 34 28 -21 c15 -11 273 -198 574 -416 300 -218 624 -453 718 -522 95 -69
178 -125 184 -125 25 0 48 26 44 50 -3 26 -35 49 -1064 795 -254 184 -468 337
-476 340 -8 3 -46 -17 -89 -47z"/>
<path d="M4760 4493 c-55 -75 -59 -88 -31 -103 28 -14 27 -15 61 35 34 50 71
60 90 26 8 -15 3 -30 -26 -72 -35 -49 -36 -53 -18 -66 26 -19 30 -18 69 34 69
91 57 121 -82 206 -8 5 -30 -16 -63 -60z"/>
<path d="M1725 4521 c-28 -12 -61 -51 -68 -80 -8 -31 15 -86 41 -100 49 -26
129 -2 151 46 26 57 4 70 -37 23 -27 -30 -72 -41 -72 -17 0 6 23 28 50 47 27
19 50 38 50 42 1 24 -83 52 -115 39z m40 -50 c5 -9 -31 -41 -47 -41 -10 0 -11
34 -1 43 10 10 41 8 48 -2z"/>
<path d="M1460 4415 c0 -22 4 -26 23 -23 14 2 22 10 22 23 0 13 -8 21 -22 23
-19 3 -23 -1 -23 -23z"/>
<path d="M5075 4400 c-10 -11 -24 -19 -31 -16 -15 6 -38 -19 -30 -33 4 -6 -9
-31 -29 -56 -19 -26 -35 -53 -35 -61 0 -17 44 -64 60 -64 16 0 29 43 17 58
-15 18 31 65 57 58 30 -8 48 11 33 34 -9 15 -7 23 8 40 15 16 17 25 9 38 -16
25 -38 26 -59 2z"/>
<path d="M1525 4360 c-20 -22 -25 -12 53 -104 31 -36 40 -54 36 -71 -4 -16 0
-24 13 -29 26 -10 56 30 48 63 -6 23 -107 152 -124 159 -4 1 -16 -7 -26 -18z"/>
<path d="M1394 4241 c-12 -5 -31 -22 -44 -38 -29 -37 -23 -98 15 -130 61 -53
160 -6 160 76 0 67 -71 117 -131 92z m60 -57 c24 -9 21 -61 -4 -74 -38 -21
-80 22 -60 61 11 19 35 24 64 13z"/>
<path d="M5211 4182 c-69 -65 -64 -161 11 -239 38 -39 50 -41 67 -10 11 21 9
27 -23 59 -56 56 -47 126 20 154 29 12 39 12 68 0 19 -8 42 -27 52 -43 10 -15
19 -30 21 -32 5 -7 53 22 53 32 0 18 -52 78 -84 98 -21 13 -50 19 -88 19 -52
0 -60 -3 -97 -38z"/>
<path d="M1217 4062 c-10 -10 -17 -25 -17 -32 0 -7 -14 -25 -32 -40 l-32 -27
69 -56 c38 -32 74 -56 79 -54 5 2 14 11 20 20 9 13 2 25 -32 60 -46 47 -50 58
-26 82 10 10 14 24 10 40 -8 30 -17 31 -39 7z"/>
<path d="M982 3923 c-19 -8 -102 -124 -96 -135 7 -10 208 -146 230 -155 13 -5
43 21 44 38 0 3 -20 19 -44 36 l-45 32 20 37 c27 55 24 90 -10 125 -28 28 -65
36 -99 22z m61 -85 c8 -12 7 -24 -1 -43 -13 -27 -22 -26 -67 9 -20 16 -20 16
4 36 27 24 49 23 64 -2z"/>
<path d="M5400 3919 c-98 -39 -68 -189 38 -189 105 0 130 154 30 189 -36 13
-35 13 -68 0z m68 -61 c36 -36 -11 -93 -57 -69 -39 21 -21 81 24 81 12 0 26
-5 33 -12z"/>
<path d="M5538 3681 c-83 -45 -82 -45 -66 -70 16 -26 29 -26 78 -1 50 25 67
25 80 -1 14 -26 1 -43 -54 -71 -23 -11 -42 -22 -44 -23 -3 -3 15 -43 23 -53 2
-2 28 9 58 24 47 23 58 26 72 14 28 -23 14 -53 -37 -80 -49 -26 -60 -48 -34
-69 29 -25 146 53 146 96 0 35 -26 90 -49 105 -13 8 -21 23 -21 39 0 14 -9 38
-20 51 -11 14 -24 37 -30 52 -12 33 -20 32 -102 -13z"/>
<path d="M880 3558 c-26 -44 -26 -83 2 -102 20 -14 24 -14 53 4 32 20 65 26
65 13 0 -4 -10 -17 -22 -30 -20 -22 -21 -25 -5 -40 13 -14 19 -14 32 -3 22 18
45 64 45 90 0 11 -9 29 -20 40 -21 21 -38 19 -82 -14 -33 -24 -46 -15 -28 18
13 26 8 56 -10 56 -6 0 -19 -15 -30 -32z"/>
<path d="M815 3361 c-26 -11 -51 -40 -60 -69 -9 -30 12 -88 38 -107 44 -31
118 -12 143 36 16 33 19 95 4 104 -16 10 -42 -16 -35 -33 7 -19 -21 -62 -40
-62 -20 0 -19 8 7 70 18 44 19 53 7 61 -17 11 -37 11 -64 0z m25 -62 c0 -16
-20 -49 -29 -49 -15 0 -22 32 -10 46 14 17 39 19 39 3z"/>
<path d="M1767 3308 c-57 -61 -129 -203 -151 -298 -46 -195 6 -440 125 -591
92 -115 155 -111 200 13 l22 58 87 0 c85 0 88 1 94 24 9 36 55 87 93 102 18 8
56 14 84 14 l52 0 -7 32 c-27 135 -12 309 40 445 14 37 28 76 31 86 5 16 -11
17 -235 17 l-240 0 -17 49 c-24 74 -49 101 -93 101 -30 0 -43 -8 -85 -52z"/>
<path d="M5687 3286 c-64 -24 -120 -46 -124 -50 -3 -3 -1 -17 5 -31 11 -24 12
-24 52 -10 40 14 41 14 50 -11 6 -14 10 -29 10 -34 0 -17 62 -60 86 -60 14 0
38 7 54 15 52 27 63 72 34 147 -32 82 -33 83 -167 34z m112 -50 c7 -8 11 -27
9 -43 -2 -23 -8 -29 -35 -31 -27 -3 -35 1 -45 22 -9 22 -8 29 7 46 21 24 48
26 64 6z"/>
<path d="M4185 3231 c-2 -2 4 -20 14 -40 35 -68 70 -199 80 -300 6 -55 9 -106
7 -113 -3 -7 -7 -43 -10 -79 l-6 -67 70 -4 c73 -4 105 -19 143 -69 24 -33 33
-101 18 -138 -11 -25 -9 -35 11 -72 20 -39 23 -57 22 -159 0 -138 -22 -227
-116 -468 -33 -86 -76 -196 -94 -245 -19 -48 -34 -96 -34 -107 0 -81 154 91
305 339 328 540 468 1081 365 1413 -36 116 -1 107 -413 110 -197 2 -360 1
-362 -1z"/>
<path d="M703 3095 c-26 -18 -47 -77 -40 -113 3 -17 -2 -35 -14 -51 -10 -13
-19 -36 -19 -52 0 -15 -5 -40 -12 -54 -6 -14 -9 -28 -5 -31 10 -11 160 -45
173 -40 8 3 14 17 14 30 0 21 -7 27 -42 36 -58 14 -72 23 -76 47 -5 35 18 44
82 32 31 -7 59 -10 61 -7 3 2 6 15 7 28 3 20 -3 25 -46 36 -59 15 -81 34 -71
63 7 24 37 27 99 10 31 -8 41 -8 47 3 21 33 10 45 -56 62 -78 20 -76 19 -102
1z"/>
<path d="M5815 3021 c-55 -23 -78 -99 -41 -140 10 -11 15 -25 11 -30 -11 -19
5 -51 27 -51 11 0 49 8 84 17 l64 17 0 41 c0 117 -62 179 -145 146z m73 -73
c32 -32 -4 -87 -48 -73 -25 8 -37 50 -20 70 15 18 51 20 68 3z"/>
<path d="M5880 2736 c-48 -7 -75 -15 -74 -23 3 -44 2 -43 73 -43 61 0 70 -2
76 -20 10 -32 -11 -48 -71 -56 -61 -7 -66 -11 -57 -44 6 -21 9 -22 66 -16 100
10 132 47 108 126 -6 20 -11 49 -11 64 0 29 2 29 -110 12z"/>
<path d="M591 2654 c-31 -110 5 -184 89 -184 60 0 92 35 89 95 -2 24 0 47 4
51 9 10 9 52 -1 58 -4 2 -44 7 -89 11 l-81 7 -11 -38z m127 -71 c4 -43 -28
-62 -64 -38 -44 29 -24 78 31 73 26 -3 30 -8 33 -35z"/>
<path d="M5935 2419 l-70 -41 -53 26 c-66 33 -72 33 -72 -4 0 -28 7 -33 140
-100 110 -55 142 -67 146 -56 12 30 -2 52 -49 75 l-49 24 46 28 c38 24 46 34
46 59 0 17 -3 30 -8 30 -4 0 -39 -18 -77 -41z"/>
<path d="M462 2368 l3 -33 104 -3 c117 -3 136 -11 127 -54 -5 -24 -1 -30 20
-38 40 -16 44 -13 44 38 0 109 -20 122 -185 122 l-116 0 3 -32z"/>
<path d="M2225 2200 c-18 -20 -17 -26 58 -254 49 -149 83 -236 93 -240 28 -11
504 -7 525 4 21 12 25 50 7 68 -9 9 -76 12 -239 12 -169 0 -229 3 -237 13 -5
6 -36 93 -67 192 -31 99 -64 190 -71 203 -18 27 -45 28 -69 2z"/>
<path d="M4363 2203 c-3 -10 -35 -106 -72 -213 l-66 -195 -249 -3 c-164 -1
-254 -6 -263 -13 -19 -17 -16 -57 6 -69 21 -11 537 -15 565 -4 9 4 43 93 91
240 61 188 74 238 65 254 -14 26 -70 28 -77 3z"/>
<path d="M3110 1745 l0 -45 220 0 220 0 0 45 0 45 -220 0 -220 0 0 -45z"/>
<path d="M2120 1211 c-7 -15 -6 -24 6 -36 19 -18 33 -16 48 7 7 12 6 21 -3 32
-18 22 -38 20 -51 -3z"/>
<path d="M1784 1191 c-44 -27 -64 -59 -64 -102 0 -67 36 -94 181 -133 70 -20
96 -46 83 -84 -5 -14 -21 -32 -34 -39 -34 -17 -118 -16 -171 2 -48 17 -72 7
-53 -23 25 -40 172 -54 240 -23 51 23 74 55 74 102 0 63 -35 93 -137 120 -103
27 -139 53 -129 92 13 53 80 71 194 53 52 -8 54 -8 50 15 -4 29 -30 37 -128
38 -57 1 -82 -4 -106 -18z"/>
<path d="M3574 1196 c-64 -29 -54 -67 12 -46 21 7 63 13 93 13 47 0 58 -4 78
-27 43 -51 23 -92 -77 -158 -98 -66 -148 -114 -156 -151 -10 -49 11 -57 147
-57 131 0 149 4 149 31 0 18 -9 19 -121 19 -92 0 -120 3 -117 13 5 12 37 38
141 112 79 56 102 89 102 147 0 40 -5 53 -33 80 -30 31 -37 33 -110 36 -50 1
-88 -3 -108 -12z"/>
<path d="M3989 1187 c-47 -31 -71 -86 -77 -172 -9 -144 58 -245 162 -245 116
0 184 95 174 244 -6 85 -35 148 -81 176 -46 29 -133 27 -178 -3z m148 -39 c38
-18 58 -74 57 -158 0 -113 -39 -170 -114 -170 -75 0 -114 57 -114 170 -1 95
23 149 75 167 35 12 57 10 96 -9z"/>
<path d="M4380 1197 c-25 -9 -36 -19 -38 -36 -3 -21 -1 -23 20 -17 101 28 180
25 205 -10 18 -24 16 -65 -3 -92 -8 -12 -55 -49 -104 -82 -48 -32 -97 -71
-109 -86 -23 -30 -28 -73 -9 -92 18 -18 248 -16 273 1 36 27 7 37 -110 37 -63
0 -116 4 -119 9 -7 11 25 39 116 100 88 59 128 109 128 161 -1 79 -53 120
-150 119 -36 0 -81 -5 -100 -12z"/>
<path d="M4763 1195 c-32 -14 -43 -38 -23 -50 5 -3 19 -1 30 5 12 6 47 12 80
12 74 1 110 -19 110 -62 0 -38 -39 -68 -101 -76 -27 -4 -52 -11 -55 -16 -11
-18 19 -38 57 -38 51 0 85 -14 105 -44 41 -64 -22 -113 -131 -102 -33 3 -71 7
-85 9 -15 1 -26 -4 -28 -14 -8 -40 146 -64 223 -35 58 23 85 57 85 109 0 34
-6 46 -39 77 l-39 37 24 19 c52 40 47 130 -9 164 -39 24 -154 27 -204 5z"/>
<path d="M2125 1078 c-3 -8 -4 -77 -3 -153 3 -137 3 -140 26 -143 l23 -3 -3
153 c-3 136 -5 153 -21 156 -9 2 -19 -3 -22 -10z"/>
<path d="M2284 1077 c-2 -7 -3 -76 -2 -152 3 -132 4 -140 23 -140 18 0 20 8
23 101 2 91 5 103 26 123 30 29 74 40 113 29 39 -10 42 -20 46 -153 2 -95 3
-100 25 -103 22 -3 22 -2 22 123 0 127 0 127 -29 156 -24 24 -38 29 -78 29
-31 0 -59 -7 -78 -20 -37 -25 -41 -25 -48 0 -6 22 -35 27 -43 7z"/>
<path d="M2719 1067 c-122 -81 -73 -278 74 -294 49 -6 108 10 128 33 21 26 -3
36 -54 22 -65 -17 -115 -3 -144 41 -68 101 28 208 148 167 45 -16 59 -14 59 9
0 46 -152 62 -211 22z"/>
<path d="M3046 1069 c-70 -55 -82 -182 -23 -248 47 -51 132 -65 207 -35 47 19
53 52 10 46 -14 -2 -53 -4 -87 -5 -67 -2 -93 13 -108 61 -6 22 -6 22 99 22 57
0 111 3 120 6 21 8 21 65 1 105 -24 45 -70 69 -136 69 -42 0 -63 -5 -83 -21z
m129 -33 c31 -13 55 -41 55 -65 0 -15 -177 -15 -186 0 -9 16 28 62 57 70 36
10 37 10 74 -5z"/>
</g>
</svg>
